<svg id="visual" viewBox="0 0 1920 200" width="1920" height="200" xmlns="http://www.w3.org/2000/svg" xmlns:xlink="http://www.w3.org/1999/xlink" version="1.1"><path d="M0 105L45.7 112C91.3 119 182.7 133 274.2 136.7C365.7 140.3 457.3 133.7 548.8 124.8C640.3 116 731.7 105 823 104C914.3 103 1005.7 112 1097 107.8C1188.3 103.7 1279.7 86.3 1371.2 81.2C1462.7 76 1554.3 83 1645.8 95.3C1737.3 107.7 1828.7 125.3 1874.3 134.2L1920 143L1920 0L1874.3 0C1828.7 0 1737.3 0 1645.8 0C1554.3 0 1462.7 0 1371.2 0C1279.7 0 1188.3 0 1097 0C1005.7 0 914.3 0 823 0C731.7 0 640.3 0 548.8 0C457.3 0 365.7 0 274.2 0C182.7 0 91.3 0 45.7 0L0 0Z" fill="#141414"></path><path d="M0 105L45.7 100.3C91.3 95.7 182.7 86.3 274.2 82.2C365.7 78 457.3 79 548.8 82.3C640.3 85.7 731.7 91.3 823 96C914.3 100.7 1005.7 104.3 1097 104.5C1188.3 104.7 1279.7 101.3 1371.2 89.8C1462.7 78.3 1554.3 58.7 1645.8 58.2C1737.3 57.7 1828.7 76.3 1874.3 85.7L1920 95L1920 0L1874.3 0C1828.7 0 1737.3 0 1645.8 0C1554.3 0 1462.7 0 1371.2 0C1279.7 0 1188.3 0 1097 0C1005.7 0 914.3 0 823 0C731.7 0 640.3 0 548.8 0C457.3 0 365.7 0 274.2 0C182.7 0 91.3 0 45.7 0L0 0Z" fill="#0b0b0b"></path><path d="M0 42L45.7 40.3C91.3 38.7 182.7 35.3 274.2 32.7C365.7 30 457.3 28 548.8 34.7C640.3 41.3 731.7 56.7 823 60C914.3 63.3 1005.7 54.7 1097 52.2C1188.3 49.7 1279.7 53.3 1371.2 47.8C1462.7 42.3 1554.3 27.7 1645.8 30.2C1737.3 32.7 1828.7 52.3 1874.3 62.2L1920 72L1920 0L1874.3 0C1828.7 0 1737.3 0 1645.8 0C1554.3 0 1462.7 0 1371.2 0C1279.7 0 1188.3 0 1097 0C1005.7 0 914.3 0 823 0C731.7 0 640.3 0 548.8 0C457.3 0 365.7 0 274.2 0C182.7 0 91.3 0 45.7 0L0 0Z" fill="#000000"></path></svg>