<svg id="visual" viewBox="0 0 1920 200" width="1920" height="200" xmlns="http://www.w3.org/2000/svg" xmlns:xlink="http://www.w3.org/1999/xlink" version="1.1"><path d="M0 153L64 142.7C128 132.3 256 111.7 384 101C512 90.3 640 89.7 768 95.5C896 101.3 1024 113.7 1152 117.7C1280 121.7 1408 117.3 1536 104C1664 90.7 1792 68.3 1856 57.2L1920 46L1920 0L1856 0C1792 0 1664 0 1536 0C1408 0 1280 0 1152 0C1024 0 896 0 768 0C640 0 512 0 384 0C256 0 128 0 64 0L0 0Z" fill="#F6F4F0" stroke-linecap="round" stroke-linejoin="miter"></path></svg>