<svg id="visual" viewBox="0 0 1920 200" width="1920" height="200" xmlns="http://www.w3.org/2000/svg" xmlns:xlink="http://www.w3.org/1999/xlink" version="1.1"><path d="M0 93L45.7 86C91.3 79 182.7 65 274.2 61.3C365.7 57.7 457.3 64.3 548.8 73.2C640.3 82 731.7 93 823 94C914.3 95 1005.7 86 1097 90.2C1188.3 94.3 1279.7 111.7 1371.2 116.8C1462.7 122 1554.3 115 1645.8 102.7C1737.3 90.3 1828.7 72.7 1874.3 63.8L1920 55L1920 201L1874.3 201C1828.7 201 1737.3 201 1645.8 201C1554.3 201 1462.7 201 1371.2 201C1279.7 201 1188.3 201 1097 201C1005.7 201 914.3 201 823 201C731.7 201 640.3 201 548.8 201C457.3 201 365.7 201 274.2 201C182.7 201 91.3 201 45.7 201L0 201Z" fill="#141414"></path><path d="M0 93L45.7 97.7C91.3 102.3 182.7 111.7 274.2 115.8C365.7 120 457.3 119 548.8 115.7C640.3 112.3 731.7 106.7 823 102C914.3 97.3 1005.7 93.7 1097 93.5C1188.3 93.3 1279.7 96.7 1371.2 108.2C1462.7 119.7 1554.3 139.3 1645.8 139.8C1737.3 140.3 1828.7 121.7 1874.3 112.3L1920 103L1920 201L1874.3 201C1828.7 201 1737.3 201 1645.8 201C1554.3 201 1462.7 201 1371.2 201C1279.7 201 1188.3 201 1097 201C1005.7 201 914.3 201 823 201C731.7 201 640.3 201 548.8 201C457.3 201 365.7 201 274.2 201C182.7 201 91.3 201 45.7 201L0 201Z" fill="#0b0b0b"></path><path d="M0 156L45.7 157.7C91.3 159.3 182.7 162.7 274.2 165.3C365.7 168 457.3 170 548.8 163.3C640.3 156.7 731.7 141.3 823 138C914.3 134.7 1005.7 143.3 1097 145.8C1188.3 148.3 1279.7 144.7 1371.2 150.2C1462.7 155.7 1554.3 170.3 1645.8 167.8C1737.3 165.3 1828.7 145.7 1874.3 135.8L1920 126L1920 201L1874.3 201C1828.7 201 1737.3 201 1645.8 201C1554.3 201 1462.7 201 1371.2 201C1279.7 201 1188.3 201 1097 201C1005.7 201 914.3 201 823 201C731.7 201 640.3 201 548.8 201C457.3 201 365.7 201 274.2 201C182.7 201 91.3 201 45.7 201L0 201Z" fill="#000000"></path></svg>