<svg id="visual" viewBox="0 0 1920 200" width="1920" height="200" xmlns="http://www.w3.org/2000/svg" xmlns:xlink="http://www.w3.org/1999/xlink" version="1.1"><path d="M0 121L64 109.2C128 97.3 256 73.7 384 63.8C512 54 640 58 768 72.8C896 87.7 1024 113.3 1152 124.5C1280 135.7 1408 132.3 1536 129.5C1664 126.7 1792 124.3 1856 123.2L1920 122L1920 201L1856 201C1792 201 1664 201 1536 201C1408 201 1280 201 1152 201C1024 201 896 201 768 201C640 201 512 201 384 201C256 201 128 201 64 201L0 201Z" fill="#F6F4F0" stroke-linecap="round" stroke-linejoin="miter"></path></svg>